<!DOCTYPE svg PUBLIC "-//W3C//DTD SVG 20010904//EN" "http://www.w3.org/TR/2001/REC-SVG-20010904/DTD/svg10.dtd">
<svg version="1.0" xmlns="http://www.w3.org/2000/svg" width="1600px" height="521px" viewBox="0 0 16000 5210" preserveAspectRatio="xMidYMid meet">
<g id="layer101" fill="#353b2f" stroke="none">
 <path d="M4190 2605 l0 -2605 85 0 85 0 0 2605 0 2605 -85 0 -85 0 0 -2605z"/>
 <path d="M0 3135 l0 -1045 270 0 270 0 0 775 0 775 650 0 650 0 0 270 0 270 -920 0 -920 0 0 -1045z"/>
 <path d="M2360 3910 l0 -270 395 0 395 0 0 270 0 270 -395 0 -395 0 0 -270z"/>
 <path d="M6545 3735 c-5 -1 -30 -8 -55 -16 -152 -44 -250 -186 -250 -363 0 -183 97 -325 253 -371 75 -22 193 -20 260 6 98 38 192 141 222 247 6 21 4 22 -69 22 -72 0 -76 -1 -90 -27 -41 -80 -109 -123 -194 -123 -99 0 -155 34 -204 125 -31 56 -31 183 0 240 32 59 43 71 97 99 56 30 132 35 188 11 48 -20 102 -75 118 -120 l13 -35 73 0 c40 0 73 3 73 8 0 23 -32 108 -51 135 -57 83 -113 126 -199 151 -46 14 -155 20 -185 11z"/>
 <path d="M8030 3350 l0 -370 250 0 250 0 0 70 0 70 -175 0 -175 0 0 80 0 80 155 0 155 0 0 65 0 65 -155 0 -155 0 0 90 0 90 175 0 175 0 0 65 0 65 -250 0 -250 0 0 -370z"/>
 <path d="M9570 3350 l0 -371 87 3 87 3 123 180 c67 99 128 189 135 201 7 11 29 45 48 75 l35 54 3 -257 2 -258 75 0 75 0 0 370 0 370 -84 0 c-57 0 -86 -4 -90 -12 -10 -20 -34 -56 -161 -243 -66 -97 -124 -183 -130 -193 -46 -79 -45 -85 -45 192 l0 256 -80 0 -80 0 0 -370z"/>
 <path d="M11490 3420 l0 -300 -105 0 -105 0 0 -70 0 -70 290 0 290 0 0 70 0 70 -110 0 -110 0 0 300 0 300 -75 0 -75 0 0 -300z"/>
 <path d="M12900 3350 l0 -370 255 0 255 0 0 70 0 70 -180 0 -180 0 0 80 0 80 160 0 160 0 0 65 0 65 -160 0 -160 0 0 90 0 90 180 0 180 0 0 65 0 65 -255 0 -255 0 0 -370z"/>
 <path d="M14450 3350 l0 -370 193 0 c215 0 280 12 330 58 108 101 81 303 -46 351 l-29 11 19 30 c10 16 31 51 47 77 16 26 48 77 71 113 67 104 68 100 -29 100 l-84 0 -63 -102 c-34 -57 -76 -127 -93 -155 l-31 -53 -62 0 -63 0 0 155 0 155 -80 0 -80 0 0 -370z m414 -99 c34 -32 34 -74 0 -106 -25 -24 -34 -25 -140 -25 l-114 0 0 81 0 81 114 -4 c105 -3 117 -5 140 -27z"/>
 <path d="M1300 2340 l0 -770 -650 0 -650 0 0 -270 0 -270 920 0 920 0 0 1040 0 1040 -270 0 -270 0 0 -770z"/>
 <path d="M7910 2734 c-14 -2 -56 -9 -95 -15 -221 -36 -390 -191 -461 -424 -26 -85 -27 -305 -1 -389 65 -211 209 -356 409 -412 92 -25 248 -30 326 -9 148 40 273 133 364 270 45 68 50 60 -67 90 -126 32 -125 32 -165 -22 -24 -32 -58 -61 -105 -88 -68 -39 -71 -40 -165 -39 -86 0 -101 4 -162 33 -135 65 -211 199 -211 371 0 174 74 304 215 376 48 25 64 28 158 28 93 1 111 -2 155 -24 67 -34 135 -104 168 -173 15 -32 27 -60 27 -62 0 -3 -89 -6 -197 -7 l-198 -3 -3 -107 -3 -108 332 0 332 0 -6 98 c-13 205 -67 345 -176 452 -75 74 -161 123 -253 144 -71 16 -180 26 -218 20z"/>
 <path d="M14095 2733 c-181 -17 -345 -100 -435 -219 -87 -115 -119 -212 -127 -379 -6 -135 11 -232 62 -341 48 -105 153 -211 257 -258 186 -85 400 -88 568 -8 102 49 223 172 267 272 19 43 52 132 53 143 0 4 -54 7 -120 7 l-120 0 -29 -58 c-34 -67 -97 -129 -173 -169 -47 -24 -63 -28 -149 -28 -87 0 -101 3 -161 33 -84 41 -147 109 -183 199 -37 92 -40 234 -7 333 31 91 98 169 182 212 62 31 71 33 170 33 125 -1 173 -19 248 -93 58 -58 71 -77 102 -157 9 -25 11 -25 129 -25 l120 0 -15 53 c-17 59 -74 180 -101 215 -63 81 -146 149 -222 183 -89 39 -223 61 -316 52z"/>
 <path d="M5330 2105 l0 -605 120 0 120 0 0 495 0 495 290 0 290 0 0 110 0 110 -410 0 -410 0 0 -605z"/>
 <path d="M6380 2105 l0 -605 415 0 415 0 0 105 0 105 -290 0 -290 0 0 130 0 130 260 0 260 0 0 115 0 115 -260 0 -260 0 0 145 0 145 290 0 290 0 0 110 0 110 -415 0 -415 0 0 -605z"/>
 <path d="M8590 2705 c0 -6 219 -540 295 -720 7 -16 22 -55 35 -85 13 -30 28 -68 36 -85 43 -102 94 -227 109 -268 l18 -48 130 3 131 3 22 55 c12 30 43 107 69 170 76 184 115 279 150 365 18 44 63 154 100 245 116 283 145 355 145 363 0 4 -58 7 -129 7 l-128 0 -52 -132 c-29 -73 -56 -143 -61 -155 -10 -23 -10 -23 -248 -23 l-239 0 -52 133 c-29 72 -56 142 -61 155 -9 21 -14 22 -140 22 -71 0 -130 -2 -130 -5z m740 -617 c-20 -51 -54 -137 -75 -190 -20 -54 -40 -98 -44 -98 -3 0 -13 19 -22 43 -10 23 -34 85 -54 137 -20 52 -45 116 -56 142 -10 26 -19 49 -19 52 0 3 69 6 154 6 l154 0 -38 -92z"/>
 <path d="M10020 2105 l0 -605 120 0 120 0 0 495 0 495 290 0 290 0 0 110 0 110 -410 0 -410 0 0 -605z"/>
 <path d="M11760 2210 l0 -500 -175 0 -175 0 0 -105 0 -105 470 0 470 0 0 105 0 105 -175 0 -175 0 0 500 0 500 -120 0 -120 0 0 -500z"/>
 <path d="M12580 2105 l0 -605 415 0 415 0 0 105 0 105 -295 0 -295 0 0 130 0 130 260 0 260 0 0 115 0 115 -260 0 -260 0 0 145 0 145 295 0 295 0 0 110 0 110 -415 0 -415 0 0 -605z"/>
 <path d="M14970 2105 l0 -605 125 0 125 0 0 235 0 235 270 0 270 0 0 -235 0 -235 120 0 120 0 0 605 0 605 -120 0 -120 0 0 -255 0 -255 -270 0 -270 0 0 255 0 255 -125 0 -125 0 0 -605z"/>
 <path d="M2360 1300 l0 -270 395 0 395 0 0 270 0 270 -395 0 -395 0 0 -270z"/>
 </g>
<g id="layer102" fill="#3bbfff" stroke="none">
 <path d="M0 3135 l0 -1045 254 0 c218 0 257 2 270 16 14 14 16 98 16 775 l0 759 648 2 647 3 0 265 0 265 -917 3 -918 2 0 -1045z"/>
 <path d="M2366 4158 c-10 -38 -7 -465 4 -492 l10 -26 382 2 383 3 0 265 0 265 -386 3 -387 2 -6 -22z"/>
 <path d="M1300 2340 l0 -770 -650 0 -650 0 0 -270 0 -270 920 0 920 0 0 1040 0 1040 -270 0 -270 0 0 -770z"/>
 <path d="M2390 1563 c-8 -3 -18 -11 -22 -17 -9 -13 -11 -441 -2 -485 l7 -31 388 0 389 0 0 264 0 264 -31 6 c-39 8 -708 7 -729 -1z"/>
 </g>

</svg>